<svg width="28" height="37" viewBox="0 0 28 37" fill="none" xmlns="http://www.w3.org/2000/svg">
<g id="Group 6">
<path id="Union" fill-rule="evenodd" clip-rule="evenodd" d="M26.0031 21.2101C27.2708 19.1041 28 16.6372 28 14C28 6.26801 21.732 0 14 0C6.26801 0 0 6.26801 0 14C0 16.6373 0.72923 19.1043 1.99705 21.2103L9.66987 34.5C11.5944 37.8333 16.4056 37.8333 18.3301 34.5L26.0031 21.2101Z" fill="#F07B3F"/>
<path id="Ellipse 20" d="M20 14C20 17.3137 17.3137 20 14 20C10.6863 20 8 17.3137 8 14C8 10.6863 10.6863 8 14 8C17.3137 8 20 10.6863 20 14Z" fill="white"/>
</g>
</svg>
